<svg width="24" height="24" viewBox="0 0 24 24" fill="none" xmlns="http://www.w3.org/2000/svg">
<path fill-rule="evenodd" clip-rule="evenodd" d="M0.96967 0.96967C1.26256 0.676777 1.73744 0.676777 2.03033 0.96967L12 10.9393L21.9697 0.96967C22.2626 0.676777 22.7374 0.676777 23.0303 0.96967C23.3232 1.26256 23.3232 1.73744 23.0303 2.03033L13.0607 12L23.0303 21.9697C23.3232 22.2626 23.3232 22.7374 23.0303 23.0303C22.7374 23.3232 22.2626 23.3232 21.9697 23.0303L12 13.0607L2.03033 23.0303C1.73744 23.3232 1.26256 23.3232 0.96967 23.0303C0.676777 22.7374 0.676777 22.2626 0.96967 21.9697L10.9393 12L0.96967 2.03033C0.676777 1.73744 0.676777 1.26256 0.96967 0.96967Z" fill="currentColor"/>
</svg>
