<svg width="18" height="21" viewBox="0 0 18 21" fill="none" xmlns="http://www.w3.org/2000/svg">
<path fill-rule="evenodd" clip-rule="evenodd" d="M14.8523 0.848422C13.7589 -0.245047 11.986 -0.245047 10.8925 0.848421L1.29939 10.4416C1.18272 10.5582 1.10497 10.7081 1.07681 10.8707L0.211947 15.8633C0.166192 16.1275 0.255771 16.397 0.450545 16.5812C0.64532 16.7653 0.919398 16.8397 1.18057 16.7793L5.93732 15.6786C6.07757 15.6461 6.20646 15.5764 6.3104 15.4768L16.0782 6.11889C17.2118 5.03285 17.2311 3.2272 16.1211 2.11713L14.8523 0.848422ZM12.0239 1.97979C12.4925 1.51116 13.2523 1.51116 13.721 1.97979L14.9897 3.2485C15.4654 3.72425 15.4571 4.4981 14.9713 4.96354L14.362 5.54727L11.4092 2.59449L12.0239 1.97979ZM10.2778 3.72586L13.2064 6.6544L5.36234 14.1693L1.99421 14.9487L2.61005 11.3937L10.2778 3.72586ZM1.0002 19.2002C0.558368 19.2002 0.200195 19.5584 0.200195 20.0002C0.200195 20.442 0.558368 20.8002 1.0002 20.8002H17.0002C17.442 20.8002 17.8002 20.442 17.8002 20.0002C17.8002 19.5584 17.442 19.2002 17.0002 19.2002H1.0002Z" fill="#65707B"/>
</svg>
