<svg width="22" height="18" viewBox="0 0 22 18" fill="none" xmlns="http://www.w3.org/2000/svg">
<path fill-rule="evenodd" clip-rule="evenodd" d="M18.1611 0.289911C18.5581 -0.0940329 19.2017 -0.0940329 19.5987 0.289911L20.1061 0.780595C20.5031 1.16454 20.5031 1.78704 20.1061 2.17098L17.6692 4.52775C19.0199 5.43821 20.3694 6.62218 21.7149 8.07964C21.9272 8.30964 22 8.5612 22 8.84803C22 9.1703 21.9306 9.49128 21.7246 9.72097C16.9456 15.0482 12.0216 16.7274 7.08874 14.7604L4.03861 17.7102C3.64162 18.0942 2.99796 18.0942 2.60096 17.7102L2.0936 17.2195C1.6966 16.8356 1.6966 16.2131 2.0936 15.8291L4.56689 13.4372C3.13864 12.5077 1.7116 11.2725 0.289078 9.73155C0.0892148 9.51506 0 9.22612 0 8.90557C0 8.59795 0.0856957 8.30621 0.279446 8.09023C5.14691 2.66427 10.1649 1.02289 15.1894 3.1639L18.1611 0.289911ZM11.0013 3.91773C11.9727 3.91773 12.8806 4.18567 13.6523 4.65045L11.5503 6.6833C11.3743 6.64151 11.1905 6.61936 11.0014 6.61936C9.71611 6.61936 8.67383 7.64273 8.67383 8.9055C8.67383 9.07893 8.69349 9.24784 8.73074 9.41021L6.62836 11.4435C6.18014 10.7 5.92285 9.83239 5.92285 8.90567C5.92285 6.15054 8.19692 3.91773 11.0013 3.91773ZM10.7885 11.1822L8.59793 13.3008C9.31344 13.679 10.1319 13.8936 11.0013 13.8936C13.8056 13.8936 16.0797 11.6608 16.0797 8.90567C16.0797 8.07913 15.875 7.29959 15.5128 6.61326L13.3224 8.73161C13.3268 8.78901 13.3291 8.847 13.3291 8.9055C13.3291 10.1683 12.2868 11.1916 11.0014 11.1916C10.9297 11.1916 10.8587 11.1884 10.7885 11.1822Z" fill="#D81B3B"/>
</svg>
