<svg width="19" height="20" viewBox="0 0 19 20" xmlns="http://www.w3.org/2000/svg">
<path fill="currentColor" fill-rule="evenodd" clip-rule="evenodd" d="M6.68933 0C6.27512 0 5.93933 0.335787 5.93933 0.75C5.93933 1.16421 6.27512 1.5 6.68933 1.5L15.6893 1.5C16.3797 1.5 16.9393 2.05964 16.9393 2.75L16.9393 16.75C16.9393 17.4404 16.3797 18 15.6893 18H6.68933C6.27512 18 5.93933 18.3358 5.93933 18.75C5.93933 19.1642 6.27512 19.5 6.68933 19.5H15.6893C17.2081 19.5 18.4393 18.2688 18.4393 16.75V2.75C18.4393 1.23122 17.2081 0 15.6893 0H6.68933ZM1.68933 9C1.27512 9 0.939331 9.33579 0.939331 9.75C0.939331 10.1642 1.27512 10.5 1.68933 10.5H10.8534L8.08554 13.2145C7.78981 13.5046 7.78518 13.9794 8.07521 14.2751C8.36524 14.5709 8.84009 14.5755 9.13582 14.2855L13.2145 10.2855C13.3583 10.1444 13.4393 9.95144 13.4393 9.75C13.4393 9.54856 13.3583 9.35558 13.2145 9.21453L9.13582 5.21453C8.84009 4.9245 8.36524 4.92913 8.07521 5.22486C7.78518 5.52059 7.78981 5.99544 8.08554 6.28547L10.8534 9H1.68933Z"/>
</svg>
