<svg width="18" height="21" viewBox="0 0 18 21" xmlns="http://www.w3.org/2000/svg">
<path fill="currentColor" fill-rule="evenodd" clip-rule="evenodd" d="M13.25 1C13.25 0.721171 13.0953 0.465356 12.8484 0.335832C12.6015 0.206308 12.3031 0.224458 12.0737 0.382954C10.0039 1.81301 7.37776 2.54865 5.22234 2.92095C4.15251 3.10574 3.21599 3.19815 2.54831 3.24428C2.21479 3.26733 1.94921 3.27876 1.76865 3.28443C1.67839 3.28727 1.60944 3.28866 1.56393 3.28934L1.51356 3.28993L1.50207 3.28999L1.5 3.29L1.49985 3.29L1.49974 3.29H1.49971C1.3009 3.29008 1.11026 3.36909 0.969671 3.50967C0.829018 3.65032 0.75 3.84109 0.75 4.04V5V20C0.75 20.2071 0.833947 20.3946 0.96967 20.5303C1.10539 20.6661 1.29289 20.75 1.5 20.75H1.50041H1.50098L1.50256 20.75H16.5C16.9142 20.75 17.25 20.4142 17.25 20V4C17.25 3.58579 16.9142 3.25 16.5 3.25L13.25 3.25V1ZM11.75 4.00114L11.75 4L11.75 3.99886V2.3396C9.67701 3.47189 7.35679 4.07448 5.47765 4.39906C4.34749 4.59427 3.35902 4.69185 2.6517 4.74072C2.50553 4.75082 2.37123 4.75884 2.25 4.76523L2.25 7.0571L2.25 19.223C2.34213 19.2178 2.44175 19.2116 2.5483 19.2043C3.21598 19.1582 4.15251 19.0657 5.22234 18.8809C7.26689 18.5278 9.73494 17.8477 11.75 16.5582L11.75 4.00114ZM9.65917 19.25C10.7868 18.826 11.9084 18.2803 12.9263 17.577C13.129 17.437 13.25 17.2064 13.25 16.96L13.25 4.75H15.75L15.75 19.25H9.65917ZM10.6976 6.72538C10.8494 7.11079 10.66 7.54626 10.2746 7.69804C8.4453 8.41844 6.57652 8.80241 5.10362 9.00828C4.6934 9.06562 4.31436 8.77955 4.25702 8.36933C4.19968 7.9591 4.48575 7.58006 4.89598 7.52273C6.29698 7.3269 8.04137 6.96539 9.72498 6.30236C10.1104 6.15059 10.5459 6.33998 10.6976 6.72538ZM10.2746 10.698C10.66 10.5463 10.8494 10.1108 10.6976 9.72538C10.5459 9.33998 10.1104 9.15059 9.72498 9.30236C8.04137 9.96539 6.29698 10.3269 4.89598 10.5227C4.48575 10.5801 4.19968 10.9591 4.25702 11.3693C4.31436 11.7796 4.6934 12.0656 5.10362 12.0083C6.57652 11.8024 8.4453 11.4184 10.2746 10.698Z"/>
</svg>
