<svg width="21" height="22" viewBox="0 0 21 22" fill="none" xmlns="http://www.w3.org/2000/svg">
<path fill-rule="evenodd" clip-rule="evenodd" d="M4.48877 17.342L5.47402 15.7276C6.27639 14.4107 7.63789 13.625 9.11489 13.625H11.8851C13.3621 13.625 14.7236 14.4107 15.526 15.7276L16.5113 17.342C14.9415 18.8304 12.8284 19.75 10.5 19.75C8.17164 19.75 6.05852 18.8304 4.48877 17.342ZM7.875 9.25C7.875 7.80275 9.05275 6.625 10.5 6.625C11.9473 6.625 13.125 7.80275 13.125 9.25C13.125 10.6981 11.9473 11.875 10.5 11.875C9.05275 11.875 7.875 10.6981 7.875 9.25ZM10.5 2.25C15.3247 2.25 19.25 6.17525 19.25 11C19.25 12.8358 18.6795 14.5385 17.71 15.9473L17.0205 14.8168C16.2391 13.5358 15.0684 12.6249 13.727 12.183C14.4331 11.4051 14.875 10.3831 14.875 9.25C14.875 6.83413 12.9159 4.875 10.5 4.875C8.08413 4.875 6.125 6.83413 6.125 9.25C6.125 10.3831 6.56687 11.4051 7.273 12.183C5.93075 12.6249 4.76088 13.5349 3.9795 14.8159L3.29 15.9473C2.3205 14.5385 1.75 12.8358 1.75 11C1.75 6.17525 5.67525 2.25 10.5 2.25ZM0 11C0 16.7995 4.70138 21.5 10.5 21.5C16.2995 21.5 21 16.7995 21 11C21 5.20138 16.2995 0.5 10.5 0.5C4.70138 0.5 0 5.20138 0 11Z" fill="#8F9399"/>
</svg>
