<svg width="20" height="22" viewBox="0 0 20 22" fill="none" xmlns="http://www.w3.org/2000/svg">
<path fill-rule="evenodd" clip-rule="evenodd" d="M10.837 4.75H1C0.585786 4.75 0.25 4.41421 0.25 4C0.25 3.58579 0.585786 3.25 1 3.25H10.837C11.1755 1.81665 12.4632 0.75 14 0.75C15.5368 0.75 16.8245 1.81665 17.163 3.25H19C19.4142 3.25 19.75 3.58579 19.75 4C19.75 4.41421 19.4142 4.75 19 4.75H17.163C16.8245 6.18335 15.5368 7.25 14 7.25C12.4632 7.25 11.1755 6.18335 10.837 4.75ZM1 10.25C0.585786 10.25 0.25 10.5858 0.25 11C0.25 11.4142 0.585786 11.75 1 11.75H3.33697C3.67555 13.1834 4.96321 14.25 6.5 14.25C8.03679 14.25 9.32445 13.1834 9.66303 11.75H19C19.4142 11.75 19.75 11.4142 19.75 11C19.75 10.5858 19.4142 10.25 19 10.25H9.66303C9.32445 8.81665 8.03679 7.75 6.5 7.75C4.96321 7.75 3.67555 8.81665 3.33697 10.25H1ZM0.25 18C0.25 17.5858 0.585786 17.25 1 17.25H10.837C11.1755 15.8166 12.4632 14.75 14 14.75C15.5368 14.75 16.8245 15.8166 17.163 17.25H19C19.4142 17.25 19.75 17.5858 19.75 18C19.75 18.4142 19.4142 18.75 19 18.75H17.163C16.8245 20.1833 15.5368 21.25 14 21.25C12.4632 21.25 11.1755 20.1833 10.837 18.75H1C0.585786 18.75 0.25 18.4142 0.25 18Z" fill="#8F9399"/>
</svg>
