<svg width="18" height="20" viewBox="0 0 18 20" fill="none" xmlns="http://www.w3.org/2000/svg">
<path fill="currentColor" fill-rule="evenodd" clip-rule="evenodd" d="M11 1.75C11.6904 1.75 12.25 2.30964 12.25 3V3.25L6.99999 3.25C5.48121 3.25 4.24999 4.48122 4.24999 6L4.24999 15.25H3C2.30964 15.25 1.75 14.6904 1.75 14L1.75 3C1.75 2.30964 2.30964 1.75 3 1.75L11 1.75ZM4.24999 16.75H3C1.48122 16.75 0.25 15.5188 0.25 14V3C0.25 1.48122 1.48122 0.25 3 0.25H11C12.5188 0.25 13.75 1.48122 13.75 3V3.25H15C16.5188 3.25 17.75 4.48122 17.75 6V13.75C17.75 13.9489 17.671 14.1397 17.5303 14.2803L12.2803 19.5303C12.1397 19.671 11.9489 19.75 11.75 19.75H6.99999C5.48121 19.75 4.24999 18.5188 4.24999 17V16.75ZM15 4.75C15.6903 4.75 16.25 5.30964 16.25 6V13H13.75C12.2312 13 11 14.2312 11 15.75V18.25H6.99999C6.30964 18.25 5.74999 17.6904 5.74999 17L5.74999 6C5.74999 5.30964 6.30964 4.75 6.99999 4.75L15 4.75ZM12.5 17.1893L15.1893 14.5H13.75C13.0596 14.5 12.5 15.0596 12.5 15.75V17.1893ZM14 11.5C14.4142 11.5 14.75 11.1642 14.75 10.75C14.75 10.3358 14.4142 10 14 10H7.99999C7.58578 10 7.24999 10.3358 7.24999 10.75C7.24999 11.1642 7.58578 11.5 7.99999 11.5H14ZM14 8.5C14.4142 8.5 14.75 8.16421 14.75 7.75C14.75 7.33579 14.4142 7 14 7H7.99999C7.58578 7 7.24999 7.33579 7.24999 7.75C7.24999 8.16421 7.58578 8.5 7.99999 8.5L14 8.5Z"/>
</svg>
