<svg width="22" height="14" viewBox="0 0 22 14" fill="none" xmlns="http://www.w3.org/2000/svg">
<path fill-rule="evenodd" clip-rule="evenodd" d="M0.279446 6.14179C7.2567 -2.04467 14.5432 -2.04614 21.7149 6.13065C21.9272 6.37274 22 6.6375 22 6.93941C22 7.27861 21.9306 7.61645 21.7246 7.85821C14.7473 16.0447 7.4608 16.0461 0.289078 7.86935C0.0892147 7.64148 0 7.33736 0 6.99997C0 6.67619 0.0856957 6.36912 0.279446 6.14179ZM11.0032 12.2499C13.8076 12.2499 16.0817 9.89983 16.0817 6.99995C16.0817 4.10007 13.8076 1.74995 11.0032 1.74995C8.19887 1.74995 5.9248 4.10007 5.9248 6.99995C5.9248 9.89983 8.19887 12.2499 11.0032 12.2499ZM13.33 6.99976C13.33 8.32888 12.2878 9.40601 11.0024 9.40601C9.71708 9.40601 8.6748 8.32888 8.6748 6.99976C8.6748 5.67065 9.71708 4.59351 11.0024 4.59351C12.2878 4.59351 13.33 5.67065 13.33 6.99976Z" fill="#65707B"/>
</svg>
